<?xml version="1.0" encoding="utf-8"?>
<!-- Generator: Adobe Illustrator 21.1.0, SVG Export Plug-In . SVG Version: 6.00 Build 0)  -->
<svg version="1.1" id="Calque_1" xmlns="http://www.w3.org/2000/svg" xmlns:xlink="http://www.w3.org/1999/xlink" x="0px" y="0px"
	 viewBox="0 0 87.9 65.3" style="enable-background:new 0 0 87.9 65.3;" xml:space="preserve">
<style type="text/css">
	.st0{fill:none;stroke:#000000;stroke-miterlimit:10;}
	.st1{fill:none;stroke:#000000;stroke-width:5;stroke-miterlimit:10;}
	.st2{fill:none;stroke:#000000;stroke-width:6;stroke-miterlimit:10;}
</style>
<title>picto_jour-var-averse_1</title>
<g id="Calque_2">
	<g id="variable_avec_averse">
		<line class="st0" x1="60.2" y1="8" x2="60.5" y2="2"/>
		<path d="M60.2,10L60.2,10c-1.2-0.1-2.1-1-2-2.1c0,0,0,0,0,0l0.3-6c0.1-1.1,1-2,2.1-1.9c1.1,0.1,2,1,1.9,2.1l0,0l-0.3,6
			C62.1,9.2,61.3,10,60.2,10z"/>
		<line class="st0" x1="73.4" y1="12.3" x2="77.8" y2="8.3"/>
		<path d="M73.4,14.3c-1.1,0-2-0.8-2.1-1.9c0-0.6,0.2-1.2,0.7-1.6l4.5-4c0.8-0.7,2.1-0.7,2.8,0.2s0.7,2.1-0.2,2.8l-4.5,4
			C74.3,14.1,73.9,14.3,73.4,14.3z"/>
		<line class="st0" x1="46.7" y1="10.9" x2="42.7" y2="6.4"/>
		<path d="M46.7,12.9c-0.6,0-1.1-0.3-1.5-0.7l-4-4.5c-0.7-0.8-0.7-2.1,0.2-2.8c0.8-0.7,2.1-0.7,2.8,0.2l4,4.5
			c0.7,0.8,0.6,2.1-0.2,2.8C47.6,12.6,47.2,12.8,46.7,12.9L46.7,12.9z"/>
		<line class="st0" x1="80" y1="22.8" x2="85.9" y2="21.7"/>
		<path d="M80,24.8c-1.1,0.1-2.1-0.7-2.2-1.8c-0.1-1.1,0.7-2.1,1.8-2.2l5.9-1.1c1.1,0,2,0.8,2.1,1.9c0,0.9-0.5,1.7-1.4,2l-5.9,1.1
			L80,24.8z"/>
		<line class="st0" x1="79.4" y1="35.3" x2="85.1" y2="37.1"/>
		<path d="M85.1,39.1h-0.6l-5.8-1.7c-1-0.5-1.4-1.6-1-2.7c0.4-0.8,1.2-1.3,2.1-1.1l5.8,1.7c1,0.3,1.6,1.5,1.3,2.5
			c-0.3,0.8-1,1.4-1.9,1.4L85.1,39.1z"/>
		<path class="st1" d="M69,28.6c0.5-5.1-3.2-9.6-8.2-10.1c-1.7-0.2-3.4,0.1-5,0.9"/>
		<path d="M46,65.3h-0.5c-1.2-0.3-2-1.5-1.7-2.7c0,0,4-12.7,5.2-12.4s-0.8,13.4-0.8,13.4C47.9,64.6,47,65.3,46,65.3z"/>
		<path d="M36.3,60.3h-0.5c-1.2-0.3-2-1.5-1.7-2.7c0,0,4-12.7,5.2-12.4s-0.8,13.4-0.8,13.4C38.2,59.6,37.3,60.3,36.3,60.3z"/>
		<path d="M24.6,65.3h-0.5c-1.2-0.3-2-1.5-1.7-2.7c0,0,4-12.7,5.2-12.4s-0.8,13.4-0.8,13.4C26.5,64.6,25.6,65.3,24.6,65.3z"/>
		<path class="st2" d="M59.3,53.5c6,0.1,10.8-4.7,10.9-10.7c0-0.1,0-0.1,0-0.2c0-6-4.9-10.3-10.9-10.3c-0.9,0-1.9,0.1-2.8,0.4
			c-2.2-9.3-11.5-15-20.8-12.8c-3.8,0.9-7.2,3.1-9.7,6.2c-6.9-4.4-16.2-2.4-20.6,4.6S3.1,46.8,10,51.3c2,1.2,4.2,2,6.5,2.2"/>
	</g>
</g>
</svg>
